<svg width="132" height="62" viewBox="0 0 132 62" fill="none" xmlns="http://www.w3.org/2000/svg">
<path d="M24.299 24.0069C24.299 17.3004 18.856 11.8574 12.1981 11.8574C12.1495 11.8574 12.1495 11.8574 12.1495 11.8574C6.51213 11.8574 1.74953 15.7453 0.388784 20.9452C0.145794 21.9172 0.0485981 22.9378 0 24.0069V42.0854C0 44.3209 1.84672 46.119 4.08223 46.119C6.31773 46.119 8.11586 44.3209 8.11586 42.0854V24.0069C8.11586 22.7434 8.69903 21.6256 9.6224 20.8966C10.5944 20.0705 11.4691 20.0219 12.1495 19.9733C14.385 19.9733 16.2317 21.7714 16.2317 24.0069C16.2317 24.9303 15.8915 25.7564 15.4056 26.4368C15.2112 26.6798 14.9682 26.8742 14.6766 27.1172C14.7252 27.0686 13.7532 27.8947 13.656 28.0405C12.5869 29.2069 12.2953 31.005 13.0243 32.5116C13.9962 34.5041 16.4261 35.3788 18.4186 34.4069H18.4672L18.5644 34.3097C18.8074 34.1639 19.0504 34.0181 19.2448 33.8723C22.3065 31.6368 24.299 28.0405 24.299 24.0069Z" fill="#043277"/>
<path d="M53.0881 23.96C53.0395 17.2535 47.5965 11.8105 40.89 11.8105C34.232 11.8105 28.7405 17.2535 28.7405 23.96C28.7405 30.6666 34.232 36.1095 40.89 36.1095C47.5965 36.1095 53.0395 30.6666 53.0881 23.96ZM40.89 28.1395C38.5573 28.1395 36.7105 26.2927 36.7105 23.96C36.7105 21.6273 38.5573 19.7806 40.89 19.7806C43.2227 19.7806 45.1666 21.6273 45.1666 23.96C45.1666 26.2927 43.2227 28.1395 40.89 28.1395Z" fill="#DC7418"/>
<path d="M65.9665 8.59484C68.202 8.59484 69.9516 6.79671 69.9516 4.6098C69.9516 2.3743 68.202 0.576172 65.9665 0.576172C63.7796 0.576172 61.9329 2.3743 61.9329 4.6098C61.9329 6.79671 63.7796 8.59484 65.9665 8.59484ZM65.9665 10.4902C63.7796 10.4902 61.9329 12.2883 61.9329 14.5238V32.748C61.9329 35.0321 60.1834 36.7817 57.9965 36.7817H58.1909C55.9554 36.7817 54.1572 38.5798 54.1572 40.8153C54.1572 43.0022 55.9068 44.7517 58.0937 44.8003C64.703 44.7517 69.9516 39.3573 69.9516 32.748V14.5238C69.9516 12.2883 68.202 10.4902 65.9665 10.4902Z" fill="#00CC83"/>
<path d="M102.113 23.96C102.065 17.2535 96.6216 11.8105 89.9151 11.8105C83.2572 11.8105 77.7656 17.2535 77.7656 23.96C77.7656 30.6666 83.2572 36.1095 89.9151 36.1095C96.6216 36.1095 102.065 30.6666 102.113 23.96ZM89.9151 28.1395C87.5824 28.1395 85.7357 26.2927 85.7357 23.96C85.7357 21.6273 87.5824 19.7806 89.9151 19.7806C92.2478 19.7806 94.1917 21.6273 94.1917 23.96C94.1917 26.2927 92.2478 28.1395 89.9151 28.1395Z" fill="#DC7418"/>
<path d="M129.639 12.9766C128.084 11.4215 125.556 11.4215 123.953 12.9766L114.525 22.4046V5.88129C114.525 3.64578 112.775 1.84766 110.54 1.84766C108.304 1.84766 106.555 3.64578 106.555 5.88129V32.0756C106.555 33.1933 106.7 33.9709 107.721 34.9429C108.499 35.6718 109.519 36.1092 110.54 36.1092C111.56 36.1092 112.581 35.7204 113.358 34.9429L129.639 18.6625C131.194 17.1074 131.194 14.5317 129.639 12.9766ZM126.82 28.0906C124.585 28.0906 122.786 29.8887 122.786 32.1242C122.786 34.3111 124.585 36.1092 126.82 36.1092C129.007 36.1092 130.805 34.3111 130.805 32.1242C130.805 29.8887 129.007 28.0906 126.82 28.0906Z" fill="#043277"/>
<circle cx="126.803" cy="31.9956" r="4.32376" fill="#043277"/>
<circle cx="65.6941" cy="4.32376" r="4.32376" fill="#00CC83"/>
<path d="M14.6218 58.5958L15.943 56.8754C16.5211 57.3434 17.0624 57.6828 17.567 57.8939C18.0717 58.1049 18.5992 58.2104 19.1497 58.2104C19.6911 58.2104 20.1131 58.1278 20.4159 57.9627C20.7279 57.7975 20.8838 57.5681 20.8838 57.2745C20.8838 57.0085 20.7783 56.802 20.5673 56.6552C20.3654 56.5084 20.026 56.3937 19.5489 56.3112L17.4294 55.9396C16.6495 55.8019 16.0486 55.5037 15.6265 55.045C15.2044 54.5862 14.9934 54.0036 14.9934 53.2971C14.9934 52.3704 15.3421 51.641 16.0394 51.1089C16.7459 50.5675 17.7138 50.2969 18.9433 50.2969C19.659 50.2969 20.3792 50.4207 21.104 50.6685C21.838 50.9162 22.4665 51.2511 22.9895 51.6731L21.7371 53.421C21.2325 53.0265 20.737 52.7375 20.2508 52.554C19.7736 52.3704 19.2828 52.2787 18.7781 52.2787C18.301 52.2787 17.9203 52.3567 17.6358 52.5127C17.3606 52.6595 17.223 52.8613 17.223 53.1182C17.223 53.3568 17.3101 53.5449 17.4845 53.6825C17.668 53.8109 17.9616 53.9073 18.3653 53.9715L20.3609 54.3018C21.2875 54.4486 21.9894 54.756 22.4665 55.2239C22.9528 55.6918 23.196 56.2974 23.196 57.0406C23.196 58.0131 22.8152 58.7838 22.0537 59.3527C21.3013 59.9216 20.2737 60.206 18.9708 60.206C18.2001 60.206 17.4294 60.0638 16.6587 59.7793C15.8972 59.4949 15.2182 59.1004 14.6218 58.5958ZM27.5178 52.5264V50.4345H36.1882V52.5264H33.0366V60.0684H30.6694V52.5264H27.5178ZM38.4779 60.0684L42.4278 50.4345H45.139L49.0338 60.0684H46.474L45.5932 57.7425H41.836L40.9414 60.0684H38.4779ZM42.5516 55.857H44.8913L43.7352 52.7742L42.5516 55.857ZM51.3223 52.5264V50.4345H59.9928V52.5264H56.8411V60.0684H54.4739V52.5264H51.3223ZM65.0989 60.0684V50.4345H67.4661V60.0684H65.0989ZM72.3255 58.5958L73.6467 56.8754C74.2248 57.3434 74.7661 57.6828 75.2707 57.8939C75.7753 58.1049 76.3029 58.2104 76.8534 58.2104C77.3947 58.2104 77.8168 58.1278 78.1196 57.9627C78.4315 57.7975 78.5875 57.5681 78.5875 57.2745C78.5875 57.0085 78.482 56.802 78.271 56.6552C78.0691 56.5084 77.7296 56.3937 77.2525 56.3112L75.1331 55.9396C74.3532 55.8019 73.7522 55.5037 73.3302 55.045C72.9081 54.5862 72.6971 54.0036 72.6971 53.2971C72.6971 52.3704 73.0457 51.641 73.7431 51.1089C74.4495 50.5675 75.4175 50.2969 76.647 50.2969C77.3626 50.2969 78.0829 50.4207 78.8077 50.6685C79.5417 50.9162 80.1702 51.2511 80.6932 51.6731L79.4408 53.421C78.9362 53.0265 78.4407 52.7375 77.9544 52.554C77.4773 52.3704 76.9865 52.2787 76.4818 52.2787C76.0047 52.2787 75.624 52.3567 75.3395 52.5127C75.0643 52.6595 74.9266 52.8613 74.9266 53.1182C74.9266 53.3568 75.0138 53.5449 75.1881 53.6825C75.3716 53.8109 75.6652 53.9073 76.0689 53.9715L78.0645 54.3018C78.9912 54.4486 79.6931 54.756 80.1702 55.2239C80.6565 55.6918 80.8996 56.2974 80.8996 57.0406C80.8996 58.0131 80.5189 58.7838 79.7573 59.3527C79.005 59.9216 77.9774 60.206 76.6745 60.206C75.9038 60.206 75.1331 60.0638 74.3624 59.7793C73.6008 59.4949 72.9219 59.1004 72.3255 58.5958ZM85.2214 52.5264V50.4345H93.8919V52.5264H90.7403V60.0684H88.3731V52.5264H85.2214ZM98.9981 60.0684V50.4345H101.365V60.0684H98.9981ZM107.023 60.0684V50.4345H109.39V54.6459L113.285 50.4345H116.148L111.688 54.9624L116.395 60.0684H113.257L109.39 55.6505V60.0684H107.023Z" fill="#444444"/>
</svg>
